# xmcd
#
# Track frame offsets:
#	150
#	3975
#	7004
#	14069
#	21541
#	24782
#	29613
#	137193
#
# Disc length: 3645 seconds
#
# Revision: 0
# Processed by: cddbd v1.5.2PL0 Copyright (c) Steve Scherf et al.
# Submitted via: EasyCDDAExtractor 2010.4.0.0
#
DISCID=610e3b08
DTITLE=Various Artist - เพลงชาติ
DYEAR=1900
DGENRE=Country
TTITLE0=เพลงชาติ(ขับร้อง)
TTITLE1=เพลงชาติ(บรรเลง)
TTITLE2=สรรเสริญพระบารมี(ขับร้อง)
TTITLE3=สรรเสริญพระบารมี(บรรเลง)
TTITLE4=มหาฤกษ์
TTITLE5=มหาชัย
TTITLE6=กราวกีฬา(ขับร้อง)
TTITLE7=กราวกีฬา(บรรเลง)
EXTD=
EXTT0=
EXTT1=
EXTT2=
EXTT3=
EXTT4=
EXTT5=
EXTT6=
EXTT7=
PLAYORDER=
